<svg width="64" height="64" viewBox="0 0 64 64" fill="none" xmlns="http://www.w3.org/2000/svg">
<path fill-rule="evenodd" clip-rule="evenodd" d="M16.1602 22.124C16.4597 23.269 17.6278 23.8601 18.8144 23.4718C28.5432 20.5231 38.2954 18.5056 48.3587 17.0378C49.5119 16.8859 50.143 15.7114 49.719 14.5332C48.8256 12.0512 48.3739 10.8132 47.4603 8.3447C47.0726 7.29683 46.0241 6.60944 44.9513 6.72414C35.117 7.91826 25.6159 9.68179 16.0938 12.3982C14.8535 12.7816 14.0926 14.149 14.4052 15.3624C15.1006 18.0628 15.4516 19.415 16.1602 22.124Z" fill="#2C2A29"/>
<path fill-rule="evenodd" clip-rule="evenodd" d="M55.1222 23.572C54.747 22.4595 53.7295 21.7163 52.723 21.8477C37.4326 23.7847 22.5438 27.5421 8.42464 33.7524C7.3948 34.2361 6.77706 35.5243 6.99335 36.6585C7.54637 39.561 7.82575 41.0135 8.39064 43.9217C8.63233 45.1651 9.80063 45.7375 10.953 45.1782C25.2937 38.6498 40.4493 34.4928 55.9964 32.0141C56.9845 31.8535 57.4883 30.7279 57.1102 29.5679C56.3266 27.1639 55.9288 25.9644 55.1222 23.572Z" fill="#2C2A29"/>
<path fill-rule="evenodd" clip-rule="evenodd" d="M55.2295 39.8028C54.8524 38.6077 53.7498 37.8274 52.7027 38.0445C43.2028 40.1175 33.9169 42.6164 24.7182 45.7964C23.5516 46.2269 22.8945 47.4649 23.2015 48.6042C23.9323 51.3173 24.3004 52.6761 25.041 55.3983C25.3887 56.6765 26.815 57.3307 28.1291 56.827C37.3249 53.5147 46.6129 50.6222 56.1034 48.3031C57.014 48.0803 57.462 47.0063 57.1233 45.8985C56.3765 43.455 55.9974 42.236 55.2295 39.8028Z" fill="#2C2A29"/>
</svg>
