<svg width="140" height="18" viewBox="0 0 140 18" fill="none" xmlns="http://www.w3.org/2000/svg">
<path fill-rule="evenodd" clip-rule="evenodd" d="M3.07817 6.07433C3.17975 6.46895 3.576 6.67247 3.97856 6.53867C7.27887 5.5229 10.5873 4.8278 14.0009 4.32211C14.3922 4.26975 14.6062 3.86511 14.4624 3.4592C14.1593 2.60391 14.0061 2.17739 13.6963 1.32704C13.5648 0.96601 13.2091 0.729182 12.8451 0.7687C9.50893 1.18011 6.28585 1.78771 3.05564 2.72359C2.63504 2.8557 2.37674 3.32681 2.4828 3.74472C2.71885 4.67524 2.83792 5.14099 3.07817 6.07433Z" fill="#2C2A29"/>
<path fill-rule="evenodd" clip-rule="evenodd" d="M16.4539 6.54186C16.3259 6.15966 15.9782 5.9042 15.6344 5.94923C10.4117 6.61511 5.32618 7.90652 0.503674 10.0408C0.151913 10.2072 -0.0590874 10.6498 0.0146509 11.0398C0.203684 12.0373 0.29911 12.5365 0.492061 13.5359C0.574474 13.9633 0.973528 14.16 1.36713 13.9681C6.26561 11.7241 11.4421 10.2954 16.7525 9.4435C17.09 9.38817 17.2621 9.00132 17.133 8.60275C16.8655 7.77639 16.7296 7.36427 16.4539 6.54186Z" fill="#2C2A29"/>
<path fill-rule="evenodd" clip-rule="evenodd" d="M16.4393 12.1131C16.3099 11.705 15.9316 11.4389 15.5721 11.5128C12.3111 12.2205 9.12358 13.0734 5.96599 14.1586C5.56553 14.3056 5.33998 14.7282 5.4452 15.1169C5.69622 16.043 5.82257 16.5068 6.07666 17.4358C6.19602 17.8722 6.68574 18.0955 7.13684 17.9235C10.2933 16.7929 13.4816 15.8056 16.7395 15.0141C17.0519 14.9382 17.2057 14.5717 17.0896 14.1936C16.8331 13.3596 16.7031 12.9434 16.4393 12.1131Z" fill="#2C2A29"/>
<path fill-rule="evenodd" clip-rule="evenodd" d="M28.8898 11.1992C28.8898 10.0771 28.1762 9.61139 26.77 9.61139H25.0909V12.7868H26.749C28.1132 12.7868 28.8898 12.2365 28.8898 11.1992ZM26.4342 4.04382C25.9934 4.04382 25.5318 4.08616 25.0909 4.14967V6.96521H26.5181C27.7773 6.96521 28.3651 6.43595 28.3651 5.52576C28.3651 4.65776 27.7564 4.04382 26.4342 4.04382ZM32.3315 11.3474C32.3315 13.8242 29.8551 15.4755 27.0427 15.4755H21.8799V1.79988C23.6009 1.54583 24.9022 1.37646 26.4342 1.37646C29.2674 1.37646 31.5341 2.71007 31.5341 5.03883C31.5341 6.37244 30.8415 7.2616 29.6032 7.74853C31.5132 8.29896 32.3315 9.46334 32.3315 11.3474Z" fill="#2C2A29"/>
<path fill-rule="evenodd" clip-rule="evenodd" d="M39.7268 12.7657V10.9451H39.1181C37.6911 10.9451 36.3898 11.2627 36.3898 12.2576C36.3898 13.0197 36.8935 13.2949 37.9219 13.2949C38.7405 13.2949 39.412 13.0407 39.7268 12.7657ZM42.8119 8.8069V14.3745C41.6787 15.2425 39.8527 15.7082 37.3763 15.7082C35.1726 15.7082 33.3467 14.7979 33.3467 12.7867C33.3467 9.75944 36.2639 9.01861 39.7268 8.91275C39.6638 7.60018 39.1391 7.26145 37.9848 7.26145C37.3763 7.26145 35.7602 7.53667 35.5504 7.53667C35.0466 7.53667 34.6479 7.21911 34.3121 6.28774L34.0601 5.5256C35.3614 5.03868 36.6417 4.69995 38.0269 4.69995C41.049 4.69995 42.8119 5.84316 42.8119 8.8069Z" fill="#2C2A29"/>
<path fill-rule="evenodd" clip-rule="evenodd" d="M54.3691 7.93908V15.4755H51.221V9.06098C51.221 7.93908 50.4865 7.36748 49.2063 7.36748C48.7237 7.36748 48.2619 7.43099 47.863 7.53684V15.4755H44.6941L44.7149 6.05504C46.0372 5.16588 48.1778 4.67896 49.9199 4.67896C52.3335 4.67896 54.3691 5.88554 54.3691 7.93908Z" fill="#2C2A29"/>
<path fill-rule="evenodd" clip-rule="evenodd" d="M55.7339 10.3101C55.7339 6.60527 58.2943 4.65771 61.6103 4.65771C62.5338 4.65771 63.3733 4.78474 64.3806 5.01761C64.2548 6.07614 63.8139 7.00751 63.3313 7.53677C62.9745 7.43092 62.3868 7.34624 62.0512 7.34624C59.9314 7.34624 59.0709 8.44711 59.0709 10.1196C59.0709 11.8131 59.8684 12.8504 61.8621 12.8504C62.408 12.8504 63.0375 12.7446 63.8139 12.4692L64.3806 15.0097C63.2264 15.4755 62.03 15.6872 61.0856 15.6872C57.8537 15.6872 55.7339 13.7395 55.7339 10.3101Z" fill="#2C2A29"/>
<path fill-rule="evenodd" clip-rule="evenodd" d="M72.7757 10.1619C72.7757 8.42594 71.9362 7.40975 70.4671 7.40975C69.0399 7.40975 68.1586 8.42594 68.1586 10.1619C68.1586 11.9825 69.0191 12.9351 70.4671 12.9351C71.9362 12.9351 72.7757 11.9825 72.7757 10.1619ZM64.9895 10.1619C64.9895 6.77463 67.2561 4.65771 70.4671 4.65771C73.804 4.65771 75.9447 6.85931 75.9447 10.1619C75.9447 13.5701 73.7831 15.6872 70.4671 15.6872C67.1302 15.6872 64.9895 13.5067 64.9895 10.1619Z" fill="#2C2A29"/>
<path fill-rule="evenodd" clip-rule="evenodd" d="M77.729 1.8846C78.4634 1.33416 80.0585 0.868408 80.8979 0.868408V15.4755H77.729V1.8846Z" fill="#2C2A29"/>
<path fill-rule="evenodd" clip-rule="evenodd" d="M90.4684 10.1619C90.4684 8.42594 89.6289 7.40975 88.1599 7.40975C86.7327 7.40975 85.8512 8.42594 85.8512 10.1619C85.8512 11.9825 86.7117 12.9351 88.1599 12.9351C89.6289 12.9351 90.4684 11.9825 90.4684 10.1619ZM82.6821 10.1619C82.6821 6.77463 84.9488 4.65771 88.1599 4.65771C91.4969 4.65771 93.6375 6.85931 93.6375 10.1619C93.6375 13.5701 91.4759 15.6872 88.1599 15.6872C84.8228 15.6872 82.6821 13.5067 82.6821 10.1619Z" fill="#2C2A29"/>
<path fill-rule="evenodd" clip-rule="evenodd" d="M111.288 7.93908V15.4755H108.161V9.06098C108.161 7.93908 107.448 7.36748 106.188 7.36748C105.601 7.36748 105.034 7.4945 104.572 7.68504C104.74 8.15079 104.824 8.65888 104.824 9.20932V15.4755H101.697V9.06098C101.697 7.93908 100.983 7.36748 99.7241 7.36748C99.2415 7.36748 98.7798 7.43099 98.381 7.53684V15.4755H95.2119L95.2329 6.05504C96.4922 5.16588 98.4649 4.67896 100.123 4.67896C101.445 4.67896 102.578 5.12354 103.397 5.84334C104.467 5.14457 105.957 4.67896 107.217 4.67896C109.504 4.67896 111.288 5.90671 111.288 7.93908Z" fill="#2C2A29"/>
<path fill-rule="evenodd" clip-rule="evenodd" d="M120.88 10.0138C120.88 8.06612 119.873 7.36749 118.257 7.36749C117.606 7.36749 117.081 7.49452 116.62 7.70622V13.0199C117.186 13.1044 117.732 13.1468 118.236 13.1468C120.082 13.1468 120.88 11.7073 120.88 10.0138ZM124.007 9.61143C124.007 13.4643 121.74 15.6872 118.047 15.6872C116.242 15.6872 114.5 15.3485 113.45 14.8617V1.8846C114.185 1.33416 115.801 0.868408 116.62 0.868408V5.88555C117.522 5.10238 118.613 4.67897 119.6 4.67897C122.727 4.67897 124.007 6.8594 124.007 9.61143Z" fill="#2C2A29"/>
<path fill-rule="evenodd" clip-rule="evenodd" d="M125.791 4.97494C126.232 4.78441 126.778 4.67856 127.386 4.67856C127.995 4.67856 128.52 4.78441 128.96 4.97494V15.4751H125.791V4.97494ZM125.749 1.62999C125.749 0.74097 126.484 0 127.365 0C128.268 0 129.002 0.719799 129.002 1.62999C129.002 2.49799 128.268 3.26013 127.365 3.26013C126.484 3.26013 125.749 2.54033 125.749 1.62999Z" fill="#2C2A29"/>
<path fill-rule="evenodd" clip-rule="evenodd" d="M136.915 12.7657V10.9451H136.306C134.879 10.9451 133.578 11.2627 133.578 12.2576C133.578 13.0197 134.081 13.2949 135.11 13.2949C135.928 13.2949 136.6 13.0407 136.915 12.7657ZM140 8.8069V14.3745C138.867 15.2425 137.041 15.7082 134.564 15.7082C132.36 15.7082 130.534 14.7979 130.534 12.7867C130.534 9.75944 133.452 9.01861 136.915 8.91275C136.852 7.60018 136.327 7.26145 135.173 7.26145C134.564 7.26145 132.948 7.53667 132.738 7.53667C132.234 7.53667 131.836 7.21911 131.5 6.28774L131.248 5.5256C132.549 5.03868 133.83 4.69995 135.215 4.69995C138.237 4.69995 140 5.84316 140 8.8069Z" fill="#2C2A29"/>
</svg>
