<svg width="114" height="14" viewBox="0 0 114 14" fill="none" xmlns="http://www.w3.org/2000/svg">
<path fill-rule="evenodd" clip-rule="evenodd" d="M111.173 6.76548L111.844 6.77044L110.616 3.70082L109.961 3.70082L108.779 6.73223L108.433 6.15925C108.279 5.92083 108.165 5.75692 108.08 5.66751C107.996 5.56817 107.882 5.4887 107.753 5.40426C108.021 5.36949 108.215 5.27015 108.359 5.12114C108.488 4.9771 108.562 4.78338 108.562 4.5549C108.562 4.36615 108.518 4.21217 108.428 4.06813C108.344 3.92409 108.22 3.82475 108.076 3.77507C107.921 3.71547 107.688 3.6956 107.36 3.6956L106.053 3.69064L106.048 6.75529L106.659 6.75529L106.664 5.46883L106.799 5.4738C106.943 5.4738 107.042 5.4887 107.102 5.50857C107.171 5.5334 107.236 5.58307 107.295 5.64268C107.35 5.70228 107.464 5.85129 107.618 6.08971L108.061 6.76026L108.768 6.76026L108.768 6.76051L109.429 6.76051L109.682 6.06512L110.91 6.06512L111.173 6.76548ZM110.284 4.4111L110.716 5.54855L109.866 5.54855L110.284 4.4111ZM106.664 4.98703L107.126 4.98703C107.42 4.98703 107.613 4.9771 107.688 4.94729C107.758 4.92743 107.812 4.88272 107.857 4.82312C107.902 4.75855 107.921 4.68404 107.921 4.58967C107.921 4.49033 107.902 4.40092 107.837 4.34132C107.787 4.28171 107.708 4.23701 107.613 4.21714C107.564 4.20721 107.405 4.20721 107.161 4.20721L106.664 4.20721L106.664 4.98703ZM103.268 3.67971L103.258 6.74437L105.593 6.74933L105.593 6.23276L103.874 6.22779L103.874 5.39333L105.42 5.3983L105.425 4.87676L103.879 4.87179L103.879 4.19628L105.534 4.20124L105.534 3.68964L103.268 3.67971ZM102.113 6.74052L102.729 6.74052L102.739 3.68082L102.123 3.67586L102.113 6.74052ZM101.676 5.7943L101.075 5.61052C101.025 5.83403 100.935 5.99795 100.816 6.10225C100.697 6.21153 100.553 6.2612 100.394 6.2612C100.17 6.2612 99.9864 6.17179 99.8473 6.01781C99.7032 5.84397 99.6386 5.56581 99.6386 5.17839C99.6386 4.82076 99.7081 4.54757 99.8572 4.39359C99.9963 4.22968 100.185 4.15021 100.414 4.15021C100.578 4.15021 100.717 4.19491 100.836 4.28929C100.95 4.37869 101.03 4.50784 101.06 4.66181L101.676 4.51777C101.601 4.27439 101.507 4.09061 101.353 3.9565C101.124 3.73795 100.816 3.6237 100.448 3.6237C100.011 3.61874 99.6634 3.76278 99.4001 4.04093C99.1417 4.32406 99.0026 4.71645 99.0026 5.23302C99.0026 5.70986 99.1268 6.09232 99.3951 6.36551C99.6535 6.64863 99.9864 6.7877 100.389 6.7877C100.732 6.7877 101.005 6.70326 101.214 6.54432C101.422 6.38537 101.581 6.13206 101.676 5.7943ZM96.0809 6.72313L96.0908 3.65847L96.6921 3.66344L97.9541 5.71482L97.9591 3.66344L98.5256 3.66841L98.5206 6.7281L97.8945 6.7281L96.6573 4.70652L96.6523 6.72313L96.0809 6.72313ZM95.152 6.71754L95.8128 6.72251L94.6004 3.65288L93.9346 3.65288L92.752 6.71258L93.403 6.71258L93.6564 6.01719L94.8886 6.01719L95.152 6.71754ZM94.2576 4.3582L94.6948 5.50062L93.8452 5.50062L94.2576 4.3582ZM90.0258 6.70562L90.0357 3.64096L90.6369 3.64593L91.899 5.69731L91.904 3.64593L92.4754 3.6509L92.4655 6.71059L91.8394 6.71059L90.6071 4.68901L90.6021 6.70562L90.0258 6.70562ZM89.5019 6.70252L88.8759 6.70252L88.8858 3.63786L89.5119 3.64283L89.5019 6.70252ZM86.3518 6.69408L86.3618 3.62942L88.4636 3.63935L88.4586 4.15095L86.9729 4.14599L86.9729 4.86621L88.2598 4.87117L88.2549 5.38775L86.968 5.38775L86.963 6.69408L86.3518 6.69408ZM84.451 6.68662L85.1218 6.69159L83.8945 3.62196L83.2436 3.62196L82.0461 6.68165L82.702 6.68165L82.9603 5.98627L84.1976 5.98627L84.451 6.68662ZM83.5665 4.33225L83.9988 5.4697L83.1492 5.4697L83.5665 4.33225ZM81.2087 6.67905L81.8348 6.67905L81.8398 3.61936L81.2174 3.61439L81.2087 6.67905ZM80.7711 5.73307L80.1748 5.54929C80.1152 5.76784 80.0307 5.93672 79.9115 6.04103C79.7873 6.15031 79.6432 6.19998 79.4941 6.19998C79.2606 6.19998 79.0817 6.11057 78.9426 5.95659C78.8034 5.78274 78.7339 5.50459 78.7388 5.11716C78.7388 4.75457 78.8084 4.48635 78.9624 4.33237C79.0916 4.16349 79.2804 4.08899 79.509 4.08899C79.673 4.08899 79.8121 4.13369 79.9264 4.22806C80.0456 4.31747 80.1202 4.44661 80.155 4.60059L80.7661 4.45655C80.6966 4.21316 80.5922 4.02938 80.4531 3.89527C80.2195 3.67672 79.9164 3.56248 79.5438 3.56248C79.1065 3.55751 78.7686 3.70156 78.5003 3.97971C78.232 4.26283 78.0979 4.65523 78.0979 5.1718C78.0979 5.64863 78.227 6.0311 78.4954 6.30428C78.7537 6.5874 79.0867 6.72648 79.4941 6.72648C79.827 6.72648 80.0904 6.64204 80.314 6.4831C80.5226 6.32415 80.6816 6.07083 80.7711 5.73307ZM75.1763 6.66129L75.1862 3.59663L75.7924 3.6016L77.0446 5.65298L77.0545 3.6016L77.6259 3.60657L77.616 6.66626L76.9999 6.66626L75.7577 4.64468L75.7477 6.66129L75.1763 6.66129ZM72.3961 3.58881L72.3862 6.65347L74.7215 6.65843L74.7215 6.14186L73.0023 6.1369L73.0073 5.30243L74.5427 5.3074L74.5427 4.78586L73.0073 4.7809L73.0123 4.10538L74.6619 4.11035L74.6619 3.59874L72.3961 3.58881ZM69.3728 3.58061L70.4958 3.58558C70.7492 3.58558 70.948 3.59551 71.0772 3.64022C71.261 3.69486 71.415 3.78426 71.5393 3.91837C71.6684 4.05745 71.7579 4.22633 71.8324 4.42004C71.897 4.61872 71.9268 4.85714 71.9268 5.14523C71.9268 5.39855 71.897 5.6171 71.8324 5.79591C71.7529 6.01943 71.6386 6.20321 71.4995 6.34228C71.4001 6.44659 71.256 6.5211 71.0672 6.58567C70.9331 6.62044 70.7492 6.65024 70.5306 6.64527L69.3629 6.64527L69.3728 3.58061ZM69.989 4.09719L69.984 6.1287L70.4412 6.1287C70.6101 6.1287 70.7343 6.1138 70.8188 6.0989C70.9231 6.0691 70.9927 6.03433 71.0623 5.96976C71.1368 5.91512 71.1815 5.81081 71.2213 5.6767C71.2709 5.53266 71.2908 5.35384 71.2908 5.11543C71.2908 4.88198 71.2759 4.69323 71.2262 4.56905C71.1865 4.44488 71.1318 4.34554 71.0523 4.26606C70.9778 4.20149 70.8834 4.14686 70.7741 4.12699C70.6846 4.10712 70.5157 4.09719 70.2623 4.09719L69.989 4.09719ZM66.341 3.57055L66.3311 6.63521L66.9074 6.63521L66.9124 4.6186L68.1596 6.64018L68.7708 6.64018L68.7807 3.57552L68.2093 3.57552L68.2043 5.62691L66.9472 3.57055L66.341 3.57055ZM63.5464 6.62739L63.5563 3.56273L65.8172 3.5677L65.8122 4.08427L64.1725 4.0793L64.1675 4.75482L65.7078 4.75979L65.7078 5.28132L64.1675 5.27636L64.1625 6.11082L65.8669 6.11579L65.8669 6.63236L63.5464 6.62739ZM61.696 4.07384L61.6861 6.62193L62.3072 6.62193L62.3121 4.07384L63.2214 4.07384L63.2264 3.55727L60.7818 3.5523L60.7818 4.06887L61.696 4.07384ZM57.9698 6.61038L57.9797 3.54572L58.571 3.54572L59.8281 5.60207L59.8331 3.55069L60.4144 3.55069L60.4095 6.61535L59.7784 6.61535L58.5362 4.59376L58.5312 6.61038L57.9698 6.61038ZM56.8189 6.60789L56.8288 3.54199L57.4449 3.54199L57.435 6.60789L56.8189 6.60789ZM53.8156 6.59647L53.8255 3.53181L55.1224 3.53678C55.4503 3.53678 55.6888 3.56161 55.8379 3.62122C55.987 3.67089 56.1012 3.77023 56.1857 3.91427C56.2801 4.05832 56.3248 4.2123 56.3248 4.40104C56.3248 4.62953 56.2553 4.82324 56.1211 4.96728C55.982 5.1163 55.7783 5.21564 55.5149 5.2504L55.5272 5.25873C55.6469 5.3401 55.761 5.41759 55.8379 5.51366C55.9373 5.60306 56.0466 5.76698 56.1907 6.00539L56.5683 6.6064L55.823 6.6064L55.3857 5.93586C55.2218 5.69744 55.1124 5.54346 55.0528 5.48882C54.9982 5.42922 54.9336 5.37955 54.8739 5.35471C54.8044 5.33484 54.7 5.31994 54.5659 5.31498L54.4367 5.31498L54.4317 6.60144L53.8156 6.59647ZM54.4367 4.83317L54.8938 4.83317C55.1919 4.83317 55.3808 4.82324 55.4454 4.79344C55.5199 4.77357 55.5795 4.72887 55.6242 4.66926C55.659 4.60469 55.6888 4.53019 55.6888 4.43581C55.6888 4.32654 55.659 4.24706 55.6093 4.18746C55.5398 4.12786 55.4752 4.08315 55.3758 4.06204C55.3261 4.05335 55.1721 4.05335 54.9187 4.05335L54.4367 4.04838L54.4367 4.83317ZM51.0335 3.52573L51.0236 6.59039L53.349 6.59535L53.349 6.07878L51.6348 6.07382L51.6397 5.23935L53.185 5.24432L53.185 4.72278L51.6397 4.71782L51.6397 4.0423L53.2944 4.04727L53.2993 3.53069L51.0335 3.52573ZM48.2305 6.58132L48.2404 3.51666L49.2292 3.51666C49.6069 3.51666 49.8603 3.53156 49.9696 3.56136C50.1485 3.61103 50.2975 3.71037 50.4118 3.86435C50.5261 4.0233 50.5857 4.21701 50.5857 4.46536C50.5857 4.65411 50.5559 4.80809 50.4814 4.93226C50.4168 5.06141 50.3224 5.16075 50.223 5.23525C50.1137 5.31473 50.0093 5.35943 49.9 5.3793C49.751 5.41407 49.5373 5.42897 49.2541 5.424L48.8466 5.424L48.8466 6.58132L48.2305 6.58132ZM48.8516 4.03323L48.8516 4.90246L49.1895 4.90246C49.4429 4.90246 49.6019 4.89253 49.6764 4.86273C49.7609 4.82299 49.8205 4.77829 49.8752 4.70875C49.9199 4.63921 49.9497 4.5647 49.9497 4.47033C49.9497 4.36106 49.9149 4.26668 49.8603 4.19218C49.7808 4.12264 49.7062 4.07793 49.6069 4.05807C49.5274 4.04317 49.3783 4.03323 49.1547 4.03323L48.8516 4.03323ZM45.8252 3.50598L45.219 3.50598L45.2141 5.1451C45.2141 5.48783 45.229 5.74611 45.2637 5.92989C45.2936 6.03917 45.3532 6.15838 45.4377 6.26269C45.5271 6.37693 45.6513 6.4564 45.7954 6.52594C45.9494 6.60044 46.1681 6.63025 46.4612 6.63025C46.7047 6.63025 46.8935 6.60541 47.0475 6.54084C47.1916 6.4862 47.3208 6.40176 47.4053 6.29745C47.4997 6.18818 47.5643 6.05904 47.5991 5.91003C47.6289 5.75605 47.6438 5.49776 47.6438 5.12523L47.6488 3.51095L47.0277 3.51095L47.0227 5.21464C47.0227 5.45306 47.0177 5.63187 47.0078 5.73618C46.978 5.84545 46.9283 5.92493 46.8389 5.99943C46.7494 6.07394 46.6153 6.10374 46.4364 6.10374C46.2674 6.10374 46.1333 6.06897 46.0289 5.9895C45.9345 5.91499 45.8799 5.81565 45.8501 5.68651C45.8302 5.60704 45.8203 5.43816 45.8203 5.17491L45.8252 3.50598ZM42.8571 5.50732L42.2608 5.56693C42.2956 5.90965 42.4149 6.1729 42.6236 6.35668C42.8323 6.53053 43.1204 6.61994 43.5229 6.6249C43.7813 6.6249 43.9999 6.58517 44.1788 6.5206C44.3626 6.44112 44.4918 6.32688 44.5962 6.17787C44.6906 6.02389 44.7403 5.85998 44.7403 5.68613C44.7403 5.48745 44.7055 5.32354 44.626 5.1944C44.5415 5.06526 44.4223 4.96591 44.2881 4.88148C44.144 4.802 43.9254 4.73246 43.6223 4.65796C43.3192 4.59339 43.1254 4.52385 43.0509 4.45928C42.9912 4.39967 42.9664 4.34007 42.9664 4.27053C42.9664 4.18609 42.9962 4.12649 43.0608 4.07185C43.1652 4.00728 43.3093 3.96754 43.4832 3.96754C43.6521 3.96754 43.7813 4.00728 43.8757 4.07185C43.9602 4.14139 44.0148 4.25563 44.0446 4.41457L44.6608 4.38477C44.6508 4.11159 44.5465 3.8831 44.3577 3.71422C44.1639 3.54038 43.8757 3.45594 43.4881 3.45594C43.2496 3.45594 43.0509 3.49071 42.8869 3.56024C42.718 3.62978 42.5838 3.72912 42.5043 3.8682C42.4149 4.00728 42.3652 4.15132 42.3652 4.31027C42.3652 4.54868 42.4596 4.7573 42.6484 4.91624C42.7875 5.04042 43.0161 5.13976 43.349 5.2242C43.4675 5.25972 43.569 5.28621 43.6503 5.30744C43.7396 5.33073 43.8045 5.34768 43.8409 5.36328C43.9502 5.40301 44.0198 5.44275 44.0645 5.49739C44.0993 5.54706 44.1192 5.61163 44.1192 5.6762C44.1192 5.79541 44.0745 5.88978 43.9751 5.97422C43.8707 6.05369 43.7217 6.0984 43.5229 6.09343C43.3291 6.09343 43.19 6.0537 43.0757 5.94939C42.9614 5.85998 42.8919 5.71594 42.8571 5.50732ZM62.4679 8.31109L63.6058 8.31606C63.8542 8.31606 64.048 8.33096 64.1822 8.37069C64.361 8.42533 64.5051 8.52467 64.6343 8.65381C64.7635 8.79289 64.8629 8.9568 64.9325 9.16045C64.9971 9.35417 65.0269 9.59258 65.0269 9.87571C65.0269 10.134 64.9971 10.3525 64.9275 10.5314C64.848 10.7549 64.7436 10.9386 64.5995 11.0777C64.4952 11.1771 64.3511 11.2565 64.1772 11.3161C64.0331 11.3608 63.8443 11.3807 63.6207 11.3807L62.458 11.3757L62.4679 8.31109ZM63.0841 8.83263L63.0791 10.8592L63.5412 10.8592C63.7101 10.8592 63.8343 10.8542 63.9089 10.8294C64.0083 10.8095 64.0878 10.7648 64.1623 10.7002C64.2368 10.6456 64.2865 10.5463 64.3263 10.4121C64.361 10.2681 64.3909 10.0843 64.3909 9.85087C64.3909 9.61245 64.366 9.42867 64.3263 9.3045C64.2915 9.18032 64.2269 9.07601 64.1573 9.01144C64.0828 8.93197 63.9784 8.88727 63.8592 8.86243C63.7847 8.8376 63.6108 8.83263 63.3573 8.83263L63.0841 8.83263ZM65.4924 8.32053L65.4825 11.3852L67.8079 11.3902L67.8079 10.8736L66.1036 10.8686L66.1086 10.0342L67.6489 10.0391L67.6539 9.51758L66.1086 9.51262L66.1086 8.84207L67.7582 8.84703L67.7582 8.32549L65.4924 8.32053ZM71.3696 10.2702L71.9708 10.4639C71.8814 10.7967 71.7224 11.0451 71.4988 11.209C71.2901 11.3729 71.0267 11.4524 70.6839 11.4524C70.2814 11.4524 69.9535 11.3183 69.6851 11.0351C69.4218 10.757 69.2926 10.3745 69.2926 9.89272C69.2926 9.38608 69.4268 8.98872 69.6951 8.71056C69.9634 8.43241 70.3062 8.2834 70.7385 8.2834C71.1112 8.28837 71.4193 8.40261 71.6528 8.62612C71.7919 8.75527 71.8963 8.94401 71.9609 9.1874L71.3547 9.33144C71.3199 9.1725 71.2453 9.04832 71.1311 8.95395C71.0068 8.85957 70.8727 8.81487 70.7087 8.81487C70.4752 8.8099 70.2864 8.89434 70.1572 9.06322C70.0081 9.2172 69.9336 9.48542 69.9286 9.84801C69.9286 10.2404 70.0031 10.5136 70.1423 10.6775C70.2814 10.8414 70.4553 10.9209 70.6888 10.9209C70.8528 10.9209 70.9919 10.8762 71.1162 10.7719C71.2255 10.6676 71.3149 10.4987 71.3696 10.2702ZM72.4513 9.10942C72.3519 9.32797 72.3122 9.58625 72.3122 9.89918C72.3122 10.3859 72.4413 10.7734 72.7097 11.0466C72.973 11.3297 73.3308 11.4688 73.7879 11.4688C74.25 11.4737 74.6078 11.3346 74.8711 11.0515C75.1494 10.7783 75.2785 10.3909 75.2835 9.88924C75.2835 9.39751 75.1494 9.00014 74.8711 8.72696C74.6078 8.44384 74.245 8.29482 73.7978 8.29482C73.5395 8.29482 73.3258 8.33456 73.132 8.419C72.9879 8.47861 72.8587 8.57298 72.7395 8.69715C72.6153 8.81636 72.5258 8.96041 72.4513 9.10942ZM73.1867 10.6691C73.0177 10.4903 72.9482 10.227 72.9482 9.87931C72.9482 9.52665 73.0227 9.26836 73.1817 9.08458C73.3407 8.90577 73.5395 8.82133 73.7978 8.82133C74.0562 8.82133 74.2599 8.91074 74.414 9.08458C74.5581 9.26836 74.6425 9.52168 74.6376 9.87931C74.6376 10.232 74.5581 10.4952 74.409 10.679C74.2401 10.8528 74.0413 10.9373 73.7879 10.9373C73.5444 10.9373 73.3457 10.8479 73.1867 10.6691ZM75.7046 11.4155L75.7146 8.37566L76.3406 8.38063L76.3357 10.8989L77.871 10.9039L77.871 11.4205L75.7046 11.4155ZM78.2633 9.12631C78.1689 9.34485 78.1192 9.60314 78.1192 9.91606C78.1192 10.4028 78.2583 10.7903 78.5267 11.0634C78.79 11.3466 79.1478 11.4856 79.6099 11.4856C80.0571 11.4906 80.4198 11.3515 80.6881 11.0684C80.9564 10.7952 81.0955 10.4078 81.0955 9.90613C81.0955 9.41439 80.9614 9.01703 80.6831 8.74384C80.4248 8.46072 80.062 8.31171 79.6099 8.31171C79.3614 8.31171 79.1428 8.35145 78.949 8.43589C78.8049 8.49549 78.6708 8.58987 78.5515 8.71404C78.4323 8.83325 78.3329 8.97729 78.2633 9.12631ZM78.9987 10.686C78.8347 10.5071 78.7602 10.2439 78.7602 9.8962C78.7602 9.54354 78.8397 9.28525 78.9987 9.10147C79.1577 8.92266 79.3565 8.83822 79.6198 8.83822C79.8682 8.83822 80.072 8.92762 80.226 9.10147C80.38 9.28525 80.4546 9.53857 80.4546 9.8962C80.4546 10.2489 80.38 10.5121 80.221 10.6959C80.0571 10.8697 79.8484 10.9542 79.6148 10.9542C79.3614 10.9542 79.1577 10.8648 78.9987 10.686ZM81.5025 11.4319L81.5124 8.36722L82.4416 8.36722L82.9832 10.4583L83.5347 8.37218L84.4689 8.37715L84.4639 11.4418L83.8875 11.4368L83.8925 9.02783L83.2863 11.4368L82.69 11.4368L82.0839 9.02286L82.0739 11.4319L81.5025 11.4319ZM86.249 8.37901L85.0217 8.37901L85.0117 11.4437L86.0601 11.4486C86.4527 11.4486 86.7011 11.4387 86.8055 11.4288C86.9694 11.4139 87.1086 11.3642 87.2229 11.2847C87.3322 11.2102 87.4216 11.096 87.4862 10.9668C87.5558 10.8377 87.5856 10.7036 87.5856 10.5645C87.5856 10.3907 87.5458 10.2367 87.4415 10.1075C87.3371 9.97343 87.198 9.88403 87.0092 9.82939C87.1384 9.77475 87.2477 9.68038 87.3222 9.56117C87.4017 9.43699 87.4415 9.31282 87.4415 9.15884C87.4415 9.0297 87.4117 8.91049 87.352 8.80121C87.2775 8.68697 87.203 8.60253 87.1185 8.53796C87.0241 8.47836 86.9048 8.43365 86.8005 8.40882C86.6713 8.38895 86.4875 8.38398 86.249 8.37901ZM85.6328 9.60091L85.6378 8.90055L85.9956 8.90055C86.2887 8.90055 86.4626 8.90552 86.5272 8.91545C86.6316 8.92539 86.7061 8.95519 86.7608 9.01976C86.8154 9.07937 86.8303 9.15387 86.8303 9.24825C86.8303 9.35255 86.8104 9.43203 86.7458 9.48666C86.6862 9.54627 86.5968 9.58104 86.4974 9.59594C86.4328 9.60091 86.2887 9.60091 86.0403 9.60091L85.6328 9.60091ZM85.6328 10.9271L85.6328 10.1224L86.1297 10.1224C86.4129 10.1224 86.6018 10.1373 86.6862 10.1671C86.7657 10.1969 86.8303 10.2466 86.875 10.3112C86.9148 10.3708 86.9396 10.4403 86.9396 10.5297C86.9396 10.644 86.9148 10.7284 86.8552 10.793C86.8005 10.8526 86.716 10.8923 86.6316 10.9172C86.5719 10.9221 86.4278 10.9271 86.2092 10.9271L85.6328 10.9271ZM88.0217 8.38783L88.0118 11.4525L88.6366 11.4525L88.6478 8.38783L88.0217 8.38783ZM91.2652 11.4617L91.9261 11.4617L90.7038 8.39205L90.0379 8.39205L88.8504 11.4517L89.5112 11.4567L89.7647 10.7613L91.0019 10.7613L91.2652 11.4617ZM90.3709 9.10731L90.8081 10.2398L89.9584 10.2398L90.3709 9.10731ZM3.74699 9.77537L1.95325 4.66429L3.06626 4.66926L4.34822 8.44421L5.59539 4.67423L6.69847 4.6792L4.86001 9.78034L3.74699 9.77537ZM8.57531 9.79201L7.53683 9.78704L7.55173 4.68093L8.59022 4.68466L8.57531 9.79201ZM12.2878 7.92974L12.2927 7.06548L14.5138 7.07045L14.5088 9.1119C14.2952 9.32051 13.9772 9.50429 13.5648 9.66821C13.1573 9.81722 12.7399 9.89669 12.3176 9.89669C11.7859 9.89172 11.3238 9.78245 10.9164 9.55396C10.5288 9.33045 10.2307 9.01256 10.0319 8.59036C9.83317 8.17313 9.73379 7.71119 9.73379 7.22939C9.73379 6.69792 9.85305 6.21612 10.0766 5.80385C10.2903 5.38662 10.6282 5.0737 11.0505 4.85515C11.3834 4.6813 11.7859 4.60183 12.2778 4.60183C12.9188 4.60183 13.4157 4.73594 13.7685 5.00416C14.1262 5.27238 14.3498 5.63994 14.4442 6.10684L13.4207 6.30056C13.3561 6.04724 13.2169 5.84856 13.0182 5.70451C12.8244 5.56047 12.566 5.48596 12.2778 5.48596C11.8306 5.48596 11.4679 5.62504 11.1946 5.90816C10.9313 6.19625 10.7971 6.62341 10.7971 7.18966C10.7922 7.79067 10.9213 8.2526 11.1996 8.55559C11.4729 8.85361 11.8207 9.01752 12.2629 9.01752C12.4666 9.01752 12.6853 8.96785 12.9138 8.89335C13.1225 8.80394 13.3113 8.7046 13.4704 8.58043L13.4753 7.93471L12.2878 7.92974ZM16.8089 9.81672L15.7853 9.81051L15.8002 4.70564L16.8226 4.70937L16.8089 9.81672ZM18.1725 9.81784L18.1874 4.75146L19.2308 4.75643L19.2159 8.95854L21.7699 8.96848L21.7649 9.82777L18.1725 9.81784ZM26.3608 9.84019L27.4739 9.84516L25.4217 4.73408L24.3385 4.72911L22.351 9.83026L23.4392 9.83522L23.8665 8.67294L25.9186 8.68287L26.3608 9.84019ZM24.8752 5.9212L25.5857 7.82358L24.1795 7.81861L24.8752 5.9212ZM28.391 4.74414L30.2642 4.7491C30.6965 4.7491 31.0195 4.77891 31.2431 4.84844C31.5362 4.93785 31.7897 5.0968 32.0083 5.32031C32.217 5.54383 32.3809 5.82695 32.4903 6.15477C32.5996 6.47763 32.6542 6.88493 32.6493 7.3568C32.6493 7.77899 32.5996 8.14159 32.4952 8.43961C32.366 8.81214 32.1872 9.11016 31.9487 9.34858C31.7698 9.51746 31.5313 9.65157 31.2182 9.75091C30.9946 9.82044 30.6915 9.85521 30.3139 9.85521L28.3761 9.84528L28.391 4.74414ZM29.4146 5.6084L29.4046 8.99095L30.1748 8.99095C30.463 8.99095 30.6667 8.97108 30.8009 8.95121C30.9698 8.90154 31.104 8.83697 31.2083 8.73266C31.3276 8.63829 31.417 8.46941 31.4866 8.24093C31.5561 8.01244 31.5909 7.70449 31.5909 7.31209C31.5959 6.91473 31.5611 6.60677 31.4915 6.40313C31.422 6.18458 31.3276 6.02563 31.2033 5.90642C31.0741 5.78721 30.9201 5.70277 30.7263 5.66304C30.5773 5.62827 30.299 5.61337 29.8767 5.6084L29.4146 5.6084ZM33.9147 6.03159C33.7607 6.3855 33.6861 6.81639 33.6861 7.34289C33.6812 8.15748 33.8998 8.79823 34.352 9.2701C34.7942 9.73203 35.3954 9.96548 36.1656 9.96548C36.9109 9.96548 37.5121 9.737 37.9643 9.27507C38.4115 8.8032 38.64 8.16245 38.64 7.33296C38.645 6.4985 38.4214 5.84781 37.9693 5.38091C37.5221 4.90408 36.9109 4.67684 36.1556 4.67063C35.7432 4.67063 35.3805 4.7352 35.0625 4.86931C34.824 4.96865 34.6004 5.12263 34.4016 5.33124C34.2029 5.53986 34.0389 5.76834 33.9147 6.03159ZM35.142 8.63556C34.8786 8.33133 34.7495 7.88927 34.7495 7.31309C34.7495 6.72698 34.8737 6.28119 35.137 5.99186C35.4004 5.6988 35.7432 5.556 36.1755 5.556C36.5979 5.55973 36.9407 5.6988 37.1891 5.98689C37.4525 6.28119 37.5817 6.72201 37.5767 7.30812C37.5767 7.8992 37.4426 8.34623 37.1742 8.64425C36.9109 8.93234 36.578 9.09129 36.1656 9.08632C35.7482 9.08632 35.4103 8.92737 35.142 8.63556ZM0.620972 3.11731L40.261 3.24149L40.2672 2.15867L0.625938 2.04443L0.620972 3.11731ZM40.2343 12.4962L0.593025 12.372L0.599235 11.3053L40.2405 11.4245L40.2343 12.4962Z" fill="black"/>
</svg>
